<?xml version="1.0" encoding="UTF-8"?>
<svg viewBox="0 0 1052.4 744.09" xmlns="http://www.w3.org/2000/svg">
 <g transform="rotate(15.602 524.14 389.92)">
  <g transform="matrix(2.1205 0 0 2.5537 -250.66 -157.86)" fill-rule="evenodd">
   <g fill="#fff" stroke="#000">
    <path d="m192.02 167.94l-1.9404-13.583-10.672-0.9702-0.9702 5.8212 13.583 8.7319z"/>
    <path d="m406.44 168.91l-21.344-56.272-16.494-2.9106s0.97022 33.957 0 48.51-0.97022 15.523-0.97022 15.523l38.808-4.851z"/>
    <path d="m138.66 185.4c4.851-2.9106 14.553-2.9106 14.553-2.9106l-34.927-58.212 18.434-1.9404 68.885 55.302 322.11-14.553s29.106 0.9702 40.749 3.8808c11.642 2.9106 18.434 10.672 23.285 12.613 4.851 1.9404 14.553 4.851 15.523 10.672 0.97022 5.8212 1.9404 6.7915-4.851 10.672-6.7914 3.8808-33.957 10.672-41.719 11.642-7.7617 0.9702-128.07 2.9106-132.92 4.851-4.8511 1.9404-25.225 6.7914-31.047 6.7914-5.8212 0-66.944 0.97022-73.736-0.97018-6.7914-1.9404-93.14-4.851-102.84-6.7915-9.7021-1.9404-45.6-9.7021-51.421-11.642-5.8212-1.9404-24.255-5.8212-28.136-9.7021-3.8808-3.8808-1.9404-9.7021-1.9404-9.7021h-1.5e-5z"/>
   </g>
   <path d="m174.45 206.5s35.612 7.0254 50.99 7.728c15.378 0.70253 66.368 0.70253 125.45 1.4051 59.084 0.70254 265.47-15.456 237.96-8.4305-27.519 7.0254-24.281 6.3229-34.803 7.0254l-127.07 4.2152s-12.141 3.5127-19.425 4.2153c-7.2843 0.70254-80.128 0.70254-80.128 0.70254l-39.659-2.8102s-57.465-1.4051-65.559-2.8102c-8.0937-1.4051-47.753-11.241-47.753-11.241z" fill-opacity=".286"/>
   <g stroke="#000">
    <g fill="#fff">
     <path d="m151.27 196.07l-36.868 23.285 18.434-1.9404s49.48-19.404 50.451-20.374c0.97022-0.97023 10.672-2.9106 0-4.8511-10.672-1.9404-32.017 3.8808-32.017 3.8808z"/>
     <path d="m349.24 246.17c2.5754-1.1446 10.855-3.2949 19.873-4.614-0.42511 0.39789 24.868-5.4233 27.779-0.062683 2.9106 3.3576 3.4203 4.2651 3.8318 11.517-0.73312 4.9627-1.766 12.166-6.5544 13.024-6.7914 0-25.749-0.11176-41.272-3.0224s-21.344-3.8809-21.344-3.8809l0.9702-8.7318 16.717-4.2296z"/>
     <path d="m334.64 220.33c-7.7617 11.642-17.464 22.315-17.464 22.315l-94.11 70.825s2.9106 5.8212 12.613 1.9404c9.7021-3.8808 120.31-68.885 120.31-68.885l43.659-29.106s6.7914-1.9404 0-4.851-20.374-1.9404-33.957 0-31.047 7.7616-31.047 7.7616z"/>
    </g>
    <g fill="none">
     <path d="m224.04 198.98l86.348-0.9702" stroke-dasharray="4.3000000 4.3000000" stroke-width="4.3"/>
     <path d="m331.73 197.04l98.961-0.9702" stroke-dasharray="4.5000000 4.5000000" stroke-width="4.5"/>
     <path d="m454.95 194.13l76.646-0.9702" stroke-dasharray="4.9000000 4.9000000" stroke-width="4.9"/>
     <path d="m541.19 203.79s-1.4761-3.03-2.3036-10.428c-0.11938-6.7914-0.041565-11.744 0.46429-11.845l9.8033-0.5655c0.607 2.327 0.041504 4.851 1.0117 11.642 0.16083 6.7915 2.1428 11.44 0.82758 11.238l-9.8032-0.0415z" stroke-opacity=".47"/>
    </g>
    <path d="m562.65 183.69l0.2861 9.7293s3.4339 0.28616 10.588-2.0031c7.1539-2.2892 16.883-11.446 16.883-12.019 0-0.5723-7.7262-5.1508-7.7262-5.1508s0.57227 1.7169-3.1477 4.0062c-3.72 2.2892-16.883 5.437-16.883 5.437z" fill-opacity=".265"/>
    <path d="m394.68 264.1c-3.72-3.4338-3.72-6.0092-3.72-10.015 0-4.0062 0.28616-10.302 2.2892-11.446 2.0031-1.1446 1.4308-1.717 3.4339 0.28616 2.0031 2.0031 2.8616 5.7231 2.8616 8.0123 0 2.2893-0.28616 6.2954-1.4308 8.8708s-2.2892 4.2923-3.4339 4.2923z" fill-opacity=".681"/>
   </g>
   <path d="m155.03 181.27l-12.95-22.662s10.522 16.187 16.997 18.616c6.475 2.4281 42.897 0.80936 42.897 0.80936l-46.944 3.2375z" fill-opacity=".286"/>
   <path d="m389.74 216.08s-29.137 21.853-85.793 55.037-66.368 41.278-71.225 41.278c-4.8562 0 0-4.0468 0-4.0468s114.93-66.368 157.02-92.268z" fill="#fff"/>
   <g fill-opacity=".286">
    <path d="m385.27 119.33l16.997 49.372-30.756 1.6187s5.6656 0.80939 21.044-4.0468-7.2843-46.944-7.2843-46.944z"/>
    <path d="m336.95 258.85c23.625 5.9924 54.059 6.674 55.877 5.9924-1.5906-3.6357-3.7201-4.787-3.3652-11.219 0.80936-10.522 1.7746-9.825 2.6835-12.779-2.0451 1.5906-3.4929 5.0272-5.1116 9.8834 0.42633 5.9924 2.6835 7.8102-4.6008 10.238-7.2843 2.4281-45.483-2.1165-45.483-2.1165z"/>
   </g>
  </g>
 </g>
</svg>
